<svg width="1487" height="1434" xmlns="http://www.w3.org/2000/svg" preserveAspectRatio="xMidYMid meet" version="1.0">

 <g>
  <title>Layer 1</title>
  <g id="svg_1" fill="#000000" transform="translate(0.000000,1434.000000) scale(0.100000,-0.100000)">
   <path fill="#2020d6" id="svg_2" d="m3877,12094c-726,-113 -1278,-676 -1372,-1397c-13,-104 -15,-524 -15,-3513c0,-2309 3,-3426 11,-3492c32,-303 148,-589 334,-827c247,-315 585,-519 1000,-602c86,-17 255,-18 3600,-18l3510,0l103,23c674,149 1154,632 1289,1297c17,86 18,243 18,3615l0,3525l-23,105c-108,490 -396,876 -827,1109c-122,66 -255,115 -426,157l-114,29l-3500,1c-2935,2 -3514,0 -3588,-12zm4977,-3932c429,-994 973,-2255 1209,-2802c236,-547 433,-1005 438,-1017l9,-23l-708,0l-707,0l-589,1383c-323,760 -708,1664 -855,2009c-146,345 -268,628 -271,628c-6,0 -760,-1740 -760,-1753c0,-4 338,-7 750,-7c413,0 750,-4 750,-8c0,-5 -197,-274 -438,-598l-438,-589l-574,-3l-575,-2l-229,-530l-229,-530l-649,0c-615,0 -650,1 -645,18c2,9 197,460 432,1002c550,1270 1881,4342 1986,4588l18,42l648,0l648,0l779,-1808z"/>
  </g>
 </g>
</svg>